<svg width="15" height="15" viewBox="0 0 15 15" fill="none" xmlns="http://www.w3.org/2000/svg">
<path fill-rule="evenodd" clip-rule="evenodd" d="M8.75 1.25C8.75 0.559644 8.19036 0 7.5 0C6.80964 0 6.25 0.559643 6.25 1.25V6.25H1.25C0.559644 6.25 0 6.80964 0 7.5C0 8.19035 0.559644 8.75 1.25 8.75H6.25V13.75C6.25 14.4404 6.80964 15 7.5 15C8.19036 15 8.75 14.4404 8.75 13.75V8.75H13.75C14.4404 8.75 15 8.19035 15 7.5C15 6.80964 14.4404 6.25 13.75 6.25H8.75V1.25Z" fill="#EBEBF5" fill-opacity="1"/>
</svg>
