<svg width="40" height="40" viewBox="0 0 40 40" fill="none" xmlns="http://www.w3.org/2000/svg">
<rect width="40" height="40" rx="15" fill="#FF7977"/>
<path fill-rule="evenodd" clip-rule="evenodd" d="M31.9992 27.2178C31.9907 26.4657 31.8276 25.6978 31.5315 24.9311C31.3849 24.5502 31.2554 24.2503 30.9622 23.596L30.945 23.5578L30.8637 23.3761C29.0642 19.3815 27.1715 15.4213 25.1863 11.4956C25.1361 11.3969 25.096 11.318 25.0076 11.1432L25.0039 11.136C24.6792 10.4943 24.5295 10.2043 24.3347 9.84771C23.978 9.19935 23.6145 8.69265 23.1754 8.2781C22.4027 7.52785 21.3569 7.06993 20.2704 7.00104L19.7975 7C18.6563 7.05673 17.5757 7.53294 16.781 8.32186C16.3648 8.72333 16.0158 9.21515 15.6674 9.84746C15.4719 10.2043 15.3111 10.5154 15.0044 11.122L14.9682 11.1936L14.8282 11.4701C13.5072 14.0809 12.2178 16.7278 10.9593 19.4114C10.0389 21.3824 9.38876 22.8017 8.7634 24.2197C8.37735 25.099 8.15875 25.7567 8.06312 26.4551C7.86067 27.8025 8.14985 29.2239 8.86368 30.3924C9.47839 31.4065 10.4004 32.2203 11.4735 32.6912C12.3096 33.0594 13.2312 33.2258 14.1385 33.1712C15.285 33.1093 16.4364 32.7067 17.5032 32.0334C18.3555 31.5007 19.1327 30.8307 20.0014 29.9204C20.788 30.747 21.5031 31.3758 22.2773 31.8903C23.3323 32.5972 24.4637 33.0406 25.6051 33.1504C26.9321 33.2916 28.3023 32.9534 29.4111 32.2044C30.3873 31.5497 31.1582 30.5845 31.5914 29.4762C31.8725 28.7596 32.0122 27.9871 31.9992 27.2178ZM29.2981 28.3062C29.0689 29.1117 28.5158 29.8178 27.7978 30.2222C27.1651 30.5826 26.401 30.7127 25.6715 30.5886C24.8027 30.4508 23.9484 30.0019 23.0595 29.2725C22.6236 28.9159 22.2029 28.5093 21.7243 27.9919C22.5823 26.8589 23.22 25.8685 23.7234 24.8379C24.3448 23.5616 24.6952 22.3698 24.7322 21.1863C24.7569 20.2974 24.5823 19.4409 24.2035 18.7056C23.692 17.6924 22.7729 16.8948 21.6908 16.507C20.7111 16.1506 19.619 16.1164 18.6117 16.4089C17.643 16.688 16.7772 17.28 16.1855 18.0822C15.6701 18.7742 15.3609 19.6342 15.29 20.5317C15.1955 21.6528 15.428 22.8192 15.928 24.054C16.4732 25.3773 17.2469 26.6465 18.2806 27.9888C17.9283 28.3777 17.5466 28.7513 17.1377 29.1088C16.2514 29.8725 15.4112 30.3578 14.5477 30.548C13.7884 30.7216 12.9888 30.6291 12.3237 30.2864C11.5311 29.8841 10.9201 29.1234 10.6909 28.2536C10.5184 27.6249 10.5476 26.928 10.7653 26.2745C10.8933 25.892 11.0225 25.5836 11.3267 24.9051L11.3522 24.8481C11.4077 24.7242 11.4436 24.6438 11.4804 24.5606C13.2418 20.6492 15.1067 16.7456 17.0718 12.8537L17.2219 12.5566L17.2294 12.5416C17.5804 11.8459 17.7434 11.5293 17.9509 11.1483C18.2292 10.6441 18.4744 10.3165 18.7701 10.0877C19.1245 9.80536 19.5692 9.65408 20.0075 9.66421C20.4762 9.65889 20.9345 9.82895 21.289 10.1323C21.6054 10.3999 21.8474 10.7528 22.171 11.3679C22.6361 12.2576 23.0409 13.0604 23.7823 14.552L23.9148 14.8184L23.9294 14.8479C25.591 18.1982 27.179 21.5617 28.6924 24.9379C28.713 24.985 28.7289 25.0214 28.7675 25.109L28.7959 25.1732C29.0803 25.8181 29.197 26.111 29.2981 26.4742C29.4644 27.0776 29.4657 27.7214 29.2984 28.3052L29.2981 28.3062ZM18.2806 27.9888C18.3763 27.8831 18.4698 27.7763 18.5612 27.6684L18.5511 28.3342C18.459 28.2185 18.3689 28.1033 18.2806 27.9888ZM21.7243 27.9919C21.6371 28.1072 21.5475 28.2239 21.4556 28.3423L21.4322 27.6706C21.5322 27.7824 21.6294 27.8893 21.7243 27.9919ZM20.0001 25.8819C20.1525 26.095 20.2719 26.2503 20.4072 26.4126L20.0072 26.7488L19.5926 26.4308C19.7349 26.2439 19.8707 26.0612 20.0001 25.8819ZM20.0001 25.8819C20.8064 24.7653 21.3676 23.784 21.7479 22.7674C22.0352 21.9859 22.1547 21.2905 22.083 20.6526C22.0261 20.1536 21.8007 19.6969 21.4575 19.3992C20.7394 18.7673 19.5757 18.6983 18.7599 19.2345C18.4336 19.4463 18.1774 19.7674 18.0426 20.1392C17.9004 20.5136 17.8671 20.9621 17.9274 21.4832C17.9982 22.0461 18.1756 22.6278 18.4577 23.2721C18.7539 23.9403 19.1327 24.6089 19.5999 25.3069L19.6262 25.3451L19.6711 25.4105C19.8008 25.5992 19.9066 25.7514 20.0001 25.8819Z" fill="white"/>
</svg>
