<svg width="40" height="40" viewBox="0 0 40 40" fill="none" xmlns="http://www.w3.org/2000/svg">
<rect width="40" height="40" rx="15" fill="#F7931A"/>
<path fill-rule="evenodd" clip-rule="evenodd" d="M30.5482 17.0303C31.0186 13.8859 28.6245 12.1956 25.3509 11.0679L26.4128 6.80849L23.8201 6.16234L22.7862 10.3095C22.1046 10.1397 21.4046 9.97945 20.7089 9.82068L21.7502 5.64615L19.1589 5L18.0962 9.25797C17.5321 9.12948 16.9782 9.00246 16.4406 8.8688L16.4436 8.85551L12.8679 7.96271L12.1782 10.7319C12.1782 10.7319 14.1019 11.1728 14.0613 11.2001C15.1114 11.4623 15.3012 12.1572 15.2694 12.7081L14.0598 17.5605C14.1322 17.579 14.226 17.6055 14.3294 17.6469L14.2415 17.625L14.2414 17.6249C14.1813 17.6099 14.119 17.5942 14.0554 17.579L12.3599 24.3765C12.2314 24.6955 11.9057 25.174 11.1717 24.9924C11.1975 25.03 9.28714 24.522 9.28714 24.522L8 27.4898L11.374 28.331C11.7508 28.4254 12.1231 28.5225 12.4915 28.6185L12.4921 28.6187C12.7372 28.6826 12.9805 28.7461 13.2224 28.808L12.1494 33.1162L14.7392 33.7623L15.8018 29.4999C16.5093 29.6919 17.1961 29.8692 17.8681 30.0361L16.8091 34.2785L19.4018 34.9247L20.4748 30.6246C24.896 31.4613 28.2206 31.1238 29.6199 27.125C30.7476 23.9054 29.5638 22.0481 27.2377 20.837C28.9317 20.4464 30.2078 19.3321 30.5482 17.0303ZM24.6242 25.3372C23.8892 28.2911 19.2655 27.0699 17.1499 26.5112L17.1496 26.5111C16.9594 26.4608 16.7894 26.4159 16.6444 26.3799L18.0682 20.6724C18.2448 20.7165 18.4607 20.7649 18.7052 20.8197L18.7052 20.8198C20.8933 21.3107 25.3775 22.3169 24.6242 25.3372ZM19.1448 18.171C20.9087 18.6418 24.756 19.6685 25.4262 16.9838C26.1106 14.2376 22.3712 13.4098 20.545 13.0056C20.3396 12.9601 20.1583 12.92 20.0103 12.8831L18.7195 18.0597C18.8414 18.0901 18.9845 18.1283 19.1448 18.171Z" fill="white"/>
</svg>
