<svg width="48" height="49" viewBox="0 0 48 49" fill="none" xmlns="http://www.w3.org/2000/svg">
<rect y="0.0666504" width="48" height="48" rx="20" fill="#FA4778"/>
<path d="M0 24.0667C0 10.8118 10.7452 0.0666504 24 0.0666504C37.2548 0.0666504 48 10.8118 48 24.0667C48 37.3215 37.2548 48.0667 24 48.0667C10.7452 48.0667 0 37.3215 0 24.0667Z" fill="#FA4778"/>
<path fill-rule="evenodd" clip-rule="evenodd" d="M17.6439 11.2666H31.3395C33.3438 11.2666 33.8888 12.4222 33.4668 14.591C32.9042 17.3998 31.0934 26.2885 30.9352 26.9108C30.7418 27.6574 30.4078 28.8841 28.6496 28.8841H24.5357C24.4654 28.8841 24.4126 28.8841 24.3072 29.0085C24.2017 29.133 17.6967 36.795 17.6967 36.795C17.1341 37.3639 16.343 37.275 16.0441 37.1506C15.7452 37.0262 15.2002 36.7062 15.2002 35.6218V13.6132C15.2002 12.7066 15.7628 11.2666 17.6439 11.2666ZM29.9155 18.0221L30.5308 15.0177C30.6363 14.5199 30.2495 14.1288 29.8628 14.1288H18.7691C18.3648 14.1288 18.0307 14.4666 18.0307 14.8754V32.2796C18.0307 32.333 18.0659 32.3507 18.101 32.2974C18.101 32.2974 22.1447 27.1775 22.6018 26.6086C23.0589 26.0397 23.2171 26.0219 23.9907 26.0042H27.6827C28.1046 26.0042 28.3859 25.6664 28.4211 25.3997C28.4739 25.1509 28.9485 22.8042 29.0364 22.342C29.1243 21.8976 28.7727 21.4887 28.3508 21.4887H23.8324C23.2347 21.4887 22.7424 20.9909 22.7424 20.3865V19.7287C22.7424 19.1243 23.2347 18.6265 23.8324 18.6265H29.1771C29.5463 18.6265 29.8452 18.3421 29.9155 18.0221Z" fill="white"/>
</svg>
