<svg width="48" height="49" viewBox="0 0 48 49" fill="none" xmlns="http://www.w3.org/2000/svg">
<rect y="0.133301" width="48" height="48" rx="20" fill="#2BDE73"/>
<path d="M24 48.1333C37.2548 48.1333 48 37.3881 48 24.1333C48 10.8785 37.2548 0.133301 24 0.133301C10.7452 0.133301 0 10.8785 0 24.1333C0 37.3881 10.7452 48.1333 24 48.1333Z" fill="#2BDE73"/>
<path d="M21.3978 20.3123L25.7992 13.9354C26.6314 12.734 27.7055 12.1333 29.0226 12.1333C30.097 12.1333 31.0265 12.5144 31.8126 13.2769C32.5979 14.0393 32.9906 14.952 32.9906 16.0148C32.9906 16.8004 32.7831 17.4937 32.367 18.0944L28.3985 23.8648L33.2507 30.0165C33.736 30.6288 33.9785 31.3452 33.9785 32.1653C33.9785 33.2515 33.5976 34.1839 32.8349 34.9637C32.0725 35.7438 31.1477 36.1333 30.0623 36.1333C28.8722 36.1333 27.9656 35.7467 27.3415 34.9724L21.3978 27.5558V31.6456C21.3978 32.8126 21.1958 33.7192 20.7913 34.3661C20.0519 35.5442 18.9776 36.1333 17.5684 36.1333C16.2859 36.1333 15.292 35.7001 14.5877 34.8338C13.9291 34.0366 13.6001 32.9793 13.6001 31.663V16.5C13.6001 15.2523 13.9346 14.2245 14.6051 13.4157C15.3096 12.561 16.2799 12.1333 17.516 12.1333C18.6946 12.1333 19.6764 12.561 20.462 13.4157C20.9009 13.8891 21.1781 14.3686 21.2936 14.8539C21.363 15.1545 21.3978 15.7144 21.3978 16.5347V20.3123Z" fill="white"/>
</svg>
