<svg width="40" height="40" viewBox="0 0 40 40" fill="none" xmlns="http://www.w3.org/2000/svg">
<rect width="40" height="40" rx="15" fill="#1F8DED"/>
<path fill-rule="evenodd" clip-rule="evenodd" d="M18.9091 9.09091C18.9091 8.48845 19.3976 8 20 8C20.6025 8 21.0909 8.48845 21.0909 9.09091V24.9091C21.0909 25.5115 20.6025 26 20 26C19.3976 26 18.9091 25.5115 18.9091 24.9091V9.09091ZM14.5455 8.552C13.943 8.552 13.4546 9.04045 13.4546 9.64291V24.2169C13.4546 24.8194 13.943 25.3078 14.5455 25.3078C15.1479 25.3078 15.6364 24.8194 15.6364 24.2169V9.64291C15.6364 9.04045 15.1479 8.552 14.5455 8.552ZM30.9091 22.7273C31.5116 22.7273 32 22.2388 32 21.6364V11.8247C32 11.2223 31.5116 10.7338 30.9091 10.7338C30.3067 10.7338 29.8182 11.2223 29.8182 11.8247V21.6364C29.8182 22.2388 30.3067 22.7273 30.9091 22.7273ZM20 32C27.4095 32 31.4508 28.6089 31.6193 28.4646C32.0767 28.0725 32.1296 27.3838 31.7374 26.9262C31.3455 26.4685 30.6555 26.4159 30.1989 26.8081C30.164 26.8381 26.6109 29.8182 20 29.8182C13.4709 29.8182 9.86248 26.8594 9.79839 26.8059C9.34076 26.4156 8.65376 26.4696 8.26266 26.9262C7.87048 27.3838 7.92366 28.0725 8.38076 28.4646C8.5493 28.6089 12.5906 32 20 32ZM8.00003 11.8247C8.00003 11.2223 8.48848 10.7338 9.09094 10.7338C9.69339 10.7338 10.1818 11.2223 10.1818 11.8247V21.6364C10.1818 22.2388 9.69339 22.7273 9.09094 22.7273C8.48848 22.7273 8.00003 22.2388 8.00003 21.6364V11.8247ZM25.4546 8.552C24.8521 8.552 24.3637 9.04045 24.3637 9.64291V24.2169C24.3637 24.8194 24.8521 25.3078 25.4546 25.3078C26.057 25.3078 26.5455 24.8194 26.5455 24.2169V9.64291C26.5455 9.04045 26.057 8.552 25.4546 8.552Z" fill="white"/>
</svg>
