<svg width="48" height="49" viewBox="0 0 48 49" fill="none" xmlns="http://www.w3.org/2000/svg">
<rect y="0.199951" width="48" height="48.0001" rx="20" fill="#FFE812"/>
<g clip-path="url(#clip0_5_797)">
<path d="M0 24.2C0 10.9451 10.7452 0.199951 24 0.199951C37.2548 0.199951 48 10.9451 48 24.2C48 37.4548 37.2548 48.2 24 48.2C10.7452 48.2 0 37.4548 0 24.2Z" fill="#FFE812"/>
<path d="M24 11.2C15.1634 11.2 8 16.8481 8 23.8153C8 28.3198 10.9948 32.2723 15.4997 34.5041C15.2546 35.3493 13.9248 39.9416 13.8718 40.3024C13.8718 40.3024 13.84 40.5735 14.0155 40.6769C14.1911 40.7803 14.3975 40.7 14.3975 40.7C14.9009 40.6296 20.2349 36.8829 21.1582 36.2323C22.0805 36.3629 23.0302 36.4307 24 36.4307C32.8366 36.4307 40 30.7827 40 23.8153C40 16.8481 32.8366 11.2 24 11.2Z" fill="#381F1F"/>
<path d="M15.154 28.2192C14.6449 28.2192 14.2309 27.8238 14.2309 27.3376V21.8538H12.7906C12.2911 21.8538 11.8848 21.4482 11.8848 20.9499C11.8848 20.4516 12.2912 20.0461 12.7906 20.0461H17.5174C18.0169 20.0461 18.4232 20.4516 18.4232 20.9499C18.4232 21.4482 18.0168 21.8538 17.5174 21.8538H16.0771V27.3376C16.0771 27.8238 15.6631 28.2192 15.154 28.2192ZM23.2481 28.2072C22.8632 28.2072 22.5688 28.0509 22.48 27.7995L22.0229 26.6029L19.2081 26.6027L18.7508 27.8001C18.6623 28.051 18.368 28.2072 17.9831 28.2072C17.7806 28.2074 17.5805 28.1639 17.3963 28.0798C17.1418 27.9624 16.8972 27.6396 17.1775 26.769L19.3855 20.9573C19.5411 20.5153 20.0135 20.0599 20.6148 20.0462C21.2177 20.0598 21.6901 20.5153 21.846 20.9582L24.0531 26.7673C24.334 27.6399 24.0894 27.9629 23.8349 28.0799C23.6507 28.1639 23.4506 28.2073 23.2481 28.2072C23.2481 28.2072 23.248 28.2072 23.2481 28.2072ZM21.5375 24.9678L20.6155 22.3485L19.6935 24.9678H21.5375ZM25.5386 28.0845C25.0508 28.0845 24.654 27.7049 24.654 27.2384V20.9692C24.654 20.4601 25.0768 20.0461 25.5963 20.0461C26.1158 20.0461 26.5386 20.4601 26.5386 20.9692V26.3922H28.5001C28.988 26.3922 29.3848 26.7719 29.3848 27.2384C29.3848 27.7049 28.988 28.0845 28.5001 28.0845H25.5386ZM30.6669 28.2072C30.1578 28.2072 29.7438 27.7932 29.7438 27.2841V20.9692C29.7438 20.4601 30.1578 20.0461 30.6669 20.0461C31.176 20.0461 31.59 20.4601 31.59 20.9692V22.9532L34.1654 20.3778C34.2978 20.2453 34.4798 20.1724 34.6774 20.1724C34.9078 20.1724 35.1392 20.2718 35.3126 20.445C35.4743 20.6065 35.5708 20.8144 35.584 21.0302C35.5974 21.2479 35.5249 21.4475 35.3803 21.5922L33.2768 23.6955L35.5489 26.7056C35.6223 26.8022 35.6757 26.9124 35.7061 27.0298C35.7366 27.1472 35.7434 27.2694 35.7261 27.3895C35.7097 27.5096 35.6696 27.6252 35.6081 27.7297C35.5466 27.8342 35.465 27.9255 35.368 27.9982C35.2084 28.1196 35.0133 28.185 34.8128 28.1845C34.6697 28.1852 34.5285 28.1524 34.4005 28.0886C34.2724 28.0249 34.1611 27.9321 34.0754 27.8176L31.9106 24.9493L31.5903 25.2696V27.2836C31.59 27.5284 31.4926 27.7632 31.3195 27.9363C31.1464 28.1094 30.9117 28.2068 30.6669 28.2072Z" fill="#FFE812"/>
</g>
<defs>
<clipPath id="clip0_5_797">
<rect width="48" height="48.0001" fill="white" transform="translate(0 0.199951)"/>
</clipPath>
</defs>
</svg>
