<svg width="16" height="18" viewBox="0 0 16 18" fill="none" xmlns="http://www.w3.org/2000/svg">
<path fill-rule="evenodd" clip-rule="evenodd" d="M8 0C3.56777 0 0 3.70292 0 8.23891C0 10.4908 0.878292 12.9032 2.28347 14.757C3.68543 16.6066 5.69437 18 8 18C10.3056 18 12.3146 16.6066 13.7165 14.757C15.1217 12.9032 16 10.4908 16 8.23891C16 3.70292 12.4322 0 8 0ZM5.16571 7.61538C5.16571 6.035 6.43467 4.75385 8 4.75385C9.56533 4.75385 10.8343 6.035 10.8343 7.61538C10.8343 9.19577 9.56533 10.4769 8 10.4769C6.43467 10.4769 5.16571 9.19577 5.16571 7.61538ZM8 5.86154C7.0406 5.86154 6.26286 6.64676 6.26286 7.61538C6.26286 8.58401 7.0406 9.36923 8 9.36923C8.9594 9.36923 9.73714 8.58401 9.73714 7.61538C9.73714 6.64676 8.9594 5.86154 8 5.86154Z" fill="#20E682"/>
</svg>
