<svg width="18" height="18" viewBox="0 0 18 18" fill="none" xmlns="http://www.w3.org/2000/svg">
<path fill-rule="evenodd" clip-rule="evenodd" d="M13.4735 3.5691C13.1393 1.94112 11.8994 0.601935 10.226 0.159318C9.4228 -0.0531058 8.57719 -0.0531059 7.77404 0.159318C6.10056 0.601935 4.86065 1.94112 4.52652 3.56909C2.7394 4.03911 1.29056 5.32863 0.62976 7.0283C1.78247 7.45312 3.07377 7.77558 4.43687 7.9957V7.68606C4.43687 7.29314 4.75944 6.97461 5.15736 6.97461C5.55528 6.97461 5.87786 7.29314 5.87786 7.68606V8.18774C7.92486 8.40504 10.0751 8.40504 12.1221 8.18774V7.68606C12.1221 7.29314 12.4447 6.97461 12.8426 6.97461C13.2406 6.97461 13.5631 7.29314 13.5631 7.68606V7.9957C14.9262 7.77558 16.2175 7.45312 17.3702 7.0283C16.7094 5.32863 15.2606 4.03911 13.4735 3.5691ZM9.85312 1.53377C9.29422 1.38594 8.70577 1.38594 8.14687 1.53377C7.22432 1.77777 6.49537 2.42273 6.13156 3.24797C8.0286 2.91086 9.97139 2.91086 11.8684 3.24797C11.5046 2.42273 10.7757 1.77777 9.85312 1.53377Z" fill="#EFF2F7"/>
<path d="M12.1221 9.61823V11.0062C12.1221 11.3991 12.4447 11.7176 12.8426 11.7176C13.2406 11.7176 13.5631 11.3991 13.5631 11.0062V9.43613C15.0628 9.20722 16.4893 8.86185 17.7682 8.40002C18.1214 9.99926 18.0702 11.6695 17.6203 13.2477C16.9834 15.4818 15.1227 17.1895 12.8115 17.6356C10.2943 18.1215 7.70569 18.1215 5.18854 17.6356C2.87734 17.1895 1.0166 15.4818 0.379749 13.2477C-0.0701514 11.6695 -0.121362 9.99926 0.231818 8.40002C1.51072 8.86184 2.93721 9.20722 4.43687 9.43613V11.0062C4.43687 11.3991 4.75944 11.7176 5.15736 11.7176C5.55528 11.7176 5.87786 11.3991 5.87786 11.0062V9.61823C7.92985 9.82541 10.0702 9.82541 12.1221 9.61823Z" fill="#EFF2F7"/>
</svg>
