<svg width="12" height="12" viewBox="0 0 12 12" fill="none" xmlns="http://www.w3.org/2000/svg">
<path fill-rule="evenodd" clip-rule="evenodd" d="M9.5 0.75C8.5335 0.75 7.75 1.5335 7.75 2.5V9.5C7.75 10.4665 8.5335 11.25 9.5 11.25C10.4665 11.25 11.25 10.4665 11.25 9.5C11.25 8.5335 10.4665 7.75 9.5 7.75H2.5C1.5335 7.75 0.75 8.5335 0.75 9.5C0.75 10.4665 1.5335 11.25 2.5 11.25C3.4665 11.25 4.25 10.4665 4.25 9.5V2.5C4.25 1.5335 3.4665 0.75 2.5 0.75C1.5335 0.75 0.75 1.5335 0.75 2.5C0.75 3.4665 1.5335 4.25 2.5 4.25H9.5C10.4665 4.25 11.25 3.4665 11.25 2.5C11.25 1.5335 10.4665 0.75 9.5 0.75Z" stroke="#D0D1D2" stroke-opacity="0.87" stroke-width="1.16667" stroke-linecap="round" stroke-linejoin="round"/>
</svg>
